# xmcd
#
# Track frame offsets:
#	150
#	19243
#	34781
#	53574
#	70266
#	86143
#	103135
#	121146
#	136863
#	150460
#	164529
#	181138
#	199911
#	214013
#	232889
#
# Disc length: 3350 seconds
#
# Revision: 1
# Processed by: cddbd v1.5.1PL2 Copyright (c) Steve Scherf et al.
# Submitted via: audiograbber 1.83.01
#
DISCID=c50d140f
DTITLE=Chartbuster May 2006 - CB60351-
DYEAR=2006
DGENRE=Karaoke
TTITLE0=Paisley, Brad - World, The
TTITLE1=Williams Jr., Hank, Gretchen Wilson, Big and Rich And Van Zant - That's H
TTITLE1=ow They Do It In Dixie
TTITLE2=Underwood, Carrie - Don't Forget To Remember Me
TTITLE3=McGraw, Tim - When The Stars Go Blue
TTITLE4=Gracin, Josh - Favorite State Of Mind
TTITLE5=Urban, Keith - Jeans On
TTITLE6=Milsap, Ronnie - Local Girls
TTITLE7=Brown, Shannon - Pearls
TTITLE8=Sugarland - Down In Mississippi (Up To No Good)
TTITLE9=Scott, Ray - Gone Either Way
TTITLE10=Wilson, Gretchen - One Bud Wiser
TTITLE11=Hot Apple Pie - Easy Does It
TTITLE12=Owen, Jake - Yee-Haw
TTITLE13=Everett, Jace - Nowhere In The Neighborhood
TTITLE14=Dixie Chicks, The - Not Ready To Make Nice
EXTD=
EXTT0=
EXTT1=
EXTT2=
EXTT3=
EXTT4=
EXTT5=
EXTT6=
EXTT7=
EXTT8=
EXTT9=
EXTT10=
EXTT11=
EXTT12=
EXTT13=
EXTT14=
PLAYORDER=
